<svg id="Layer_1" data-name="Layer 1" xmlns="http://www.w3.org/2000/svg" xmlns:xlink="http://www.w3.org/1999/xlink" viewBox="0 0 653.97 289.92"><defs><style>.cls-1{fill:none;}.cls-2{fill:#00a19b;}.cls-3{clip-path:url(#clip-path);}.cls-4{fill:#ffc600;}</style><clipPath id="clip-path" transform="translate(-14.14 -24.08)"><path class="cls-1" d="M50.62,96.22s70.13,83,227.79,60.72S560.26,75.73,560.26,75.73l-3.87,195.19L88.26,306.58,50.62,270.92,25.85,224.48Z"/></clipPath></defs><path class="cls-1" d="M110.21,145.55c60.73,22.71,128.15,33.58,190.58,16.1,17.79-5,34.87-12.16,51.88-19.35,67-28.29,134.05-56.88,198.72-90.24" transform="translate(-14.14 -24.08)"/><path class="cls-2" d="M252.29,136.84c38.81-3.32,79-10.2,117.16-18.52l2.5-15.63H315.23l5.18-37.43H389l5.56-41.18H268ZM410.36,24.08l-5.52,44.34h40.53l-4.52,32.28c22.42-6.14,43-12.3,60.67-17.89l2-14.39h44.63l6.08-44.34ZM164.07,61.23l4.23,76.12Q185.42,139,204.79,139c5.72,0,11.52-.11,17.37-.31L205.53,24.08H135.85L95.76,118.36q19.09,9.86,45,15Zm-75,72.84L50.62,224.48h60.76l12.67-38.87H171l2,38.87h61.61L226,165.41C151,165.38,110.15,148.4,89.08,134.07Zm218.23,25.77q-31,3.94-58.93,5.1l-8.3,59.54H367.92L373.68,183H304Zm116.18,64.64h58.16L496.57,118.1q-31.17,9.18-60.49,16.58Z" transform="translate(-14.14 -24.08)"/><path class="cls-2" d="M556.39,93.05,542.17,75.73c-79.33,27.35-364.95,117.47-468.08,35.9C74.09,111.63,140.77,230.59,556.39,93.05Z" transform="translate(-14.14 -24.08)"/><path class="cls-2" d="M665.74,42.9l-13.85-.73a13,13,0,0,0-6.06,1.13l-22.28,10-14,0,3.55-1.56a1.09,1.09,0,0,0,.57-1.44,1.1,1.1,0,0,0-1.45-.57l-8.11,3.56-5.44,0,4.17-1.83a1.1,1.1,0,1,0-.88-2l-8.73,3.83-14,0-7.4,3.25,29,7h0l-31.2,14-16.07-6.2-6.83,2.29,14.54,17.19,50-17.6-7.1,29,5.7-2.5L619,85l8.4-3.69a1.1,1.1,0,1,0-.88-2l-5.44,2.38L625,75.47l7.56-3.32a1.1,1.1,0,0,0-.89-2l-4.58,2L632,64.47l34.73-16.8a2.51,2.51,0,0,0-1-4.77Z" transform="translate(-14.14 -24.08)"/><path class="cls-2" d="M41.33,312.72l-.45-8.63H30.46l-2.82,8.63H14.14L33.08,268.2H48.56L55,312.72ZM33.4,294.88h7l-1-18.43Z" transform="translate(-14.14 -24.08)"/><path class="cls-2" d="M93.88,288.51q-1.95,3.42-7.52,6.24l8,18H80.29L74.4,296.86H71.78L69.6,312.72H56.68l6.21-44.52h16q8.19,0,12.54,3.33a10.69,10.69,0,0,1,4.35,9A16,16,0,0,1,93.88,288.51ZM73.06,288h3.32a5.45,5.45,0,0,0,4.64-2,7.62,7.62,0,0,0,1.51-4.73q0-4.1-5.19-4.1H74.53Z" transform="translate(-14.14 -24.08)"/><path class="cls-2" d="M133.63,271.75q4.55,4.83,4.55,13.53a39.8,39.8,0,0,1-2.31,13.37,24.38,24.38,0,0,1-7.67,10.94q-5.37,4.41-14,4.41t-13.08-4.86q-4.58-4.86-4.58-13.56a39.8,39.8,0,0,1,2.31-13.37,24.15,24.15,0,0,1,7.7-10.91q5.42-4.38,14-4.38T133.63,271.75Zm-20,8a23,23,0,0,0-2.94,8.16,50.77,50.77,0,0,0-.8,8.73q0,4.27,1.31,6.14a4.62,4.62,0,0,0,4.06,1.85,6.63,6.63,0,0,0,5.92-3.48,22.75,22.75,0,0,0,2.94-8.16,53.06,53.06,0,0,0,.8-8.89q0-4.22-1.31-6.05a4.67,4.67,0,0,0-4.06-1.82A6.63,6.63,0,0,0,113.58,279.78Z" transform="translate(-14.14 -24.08)"/><path class="cls-2" d="M176.81,297.69a19.08,19.08,0,0,1-3.16,8.35,17.63,17.63,0,0,1-6.88,5.82A22.88,22.88,0,0,1,156.54,314q-8.07,0-12.09-3.58t-4-9.85a24,24,0,0,1,.2-3l4.09-29.36h12.92l-4.09,29.11a18.73,18.73,0,0,0-.19,2.56,5.28,5.28,0,0,0,1,3.55,4.14,4.14,0,0,0,3.23,1.12,5.33,5.33,0,0,0,4.32-1.8,10.88,10.88,0,0,0,2-5.56l4.1-29h12.92Z" transform="translate(-14.14 -24.08)"/><path class="cls-2" d="M215.38,312.72H199.14L193.7,279l.06,1.73c.17,2.64.26,4.8.26,6.46a95,95,0,0,1-.9,12.41l-1.85,13.11H180l6.2-44.52h16l5.69,33.71c-.26-3.92-.38-6.73-.38-8.44a86.4,86.4,0,0,1,.89-11.71l1.92-13.56h11.26Z" transform="translate(-14.14 -24.08)"/><path class="cls-2" d="M256.45,271.94q5.63,3.75,5.63,13.15,0,12.35-6,20t-19.9,7.64H221.4l6.2-44.52h13.88Q250.83,268.2,256.45,271.94Zm-17.21,5.54-3.64,26h2.49a8.38,8.38,0,0,0,8.35-5.47,32.25,32.25,0,0,0,2.33-12.76q0-4.35-1.66-6.05t-5.18-1.69Z" transform="translate(-14.14 -24.08)"/><path class="cls-2" d="M311.72,268.2l-2.62,9.15H294.64l-1.15,8.32h12.6l-1.15,8.89H292.27L291,303.51h15.48l-1.28,9.21h-28.4L283,268.2Z" transform="translate(-14.14 -24.08)"/><path class="cls-2" d="M344.18,268.59a17.92,17.92,0,0,1,6.17,4.35l-7,6.33a16.14,16.14,0,0,0-3.81-2.4,10.43,10.43,0,0,0-4.06-.74q-6.66,0-9.4,6.3a36.56,36.56,0,0,0-2.75,14.75c0,2.77.45,4.71,1.37,5.82a5.21,5.21,0,0,0,4.25,1.66,12.33,12.33,0,0,0,4.8-1l1.15-8.19h-4.41l.13-8.89h18L345.49,309a34,34,0,0,1-17.14,5q-18.3,0-18.3-17.84a37.79,37.79,0,0,1,2.63-14,24.65,24.65,0,0,1,8.38-10.94q5.76-4.29,14.65-4.29A20.62,20.62,0,0,1,344.18,268.59Z" transform="translate(-14.14 -24.08)"/><path class="cls-2" d="M391.68,268.2l-17.85,28.08-2.3,16.44H358.61l2.3-16.37-10-28.15h13.88l4,18.17,9.08-18.17Z" transform="translate(-14.14 -24.08)"/><path class="cls-2" d="M422.28,271.5q4.52,3.28,4.51,9.56a18.52,18.52,0,0,1-2,8.41,16.43,16.43,0,0,1-6.53,6.72,21.9,21.9,0,0,1-11.32,2.65h-4.35l-1.92,13.88H387.71l6.2-44.52h15.74Q417.78,268.2,422.28,271.5ZM412,287.14a9.7,9.7,0,0,0,1.54-5.31q0-4.49-5.18-4.48h-2.75l-1.73,12.22h2.94Q410.42,289.57,412,287.14Z" transform="translate(-14.14 -24.08)"/><path class="cls-2" d="M463.45,268.2l-2.69,9.85h-9.91L446,312.72H433.06l4.86-34.67H427.31l1.34-9.85Z" transform="translate(-14.14 -24.08)"/><path class="cls-2" d="M512.32,268.2l-2.69,9.85h-9.91l-4.87,34.67H481.93l4.86-34.67H476.18l1.34-9.85Z" transform="translate(-14.14 -24.08)"/><path class="cls-2" d="M545,271.75q4.54,4.83,4.55,13.53a39.8,39.8,0,0,1-2.31,13.37,24.38,24.38,0,0,1-7.67,10.94q-5.39,4.41-14,4.41t-13.08-4.86q-4.58-4.86-4.58-13.56a39.8,39.8,0,0,1,2.31-13.37,24.15,24.15,0,0,1,7.7-10.91q5.42-4.38,14-4.38C537.6,266.92,542,268.53,545,271.75Zm-20,8a23,23,0,0,0-2.94,8.16,50.77,50.77,0,0,0-.8,8.73c0,2.85.43,4.9,1.31,6.14a4.62,4.62,0,0,0,4.06,1.85,6.63,6.63,0,0,0,5.92-3.48,22.75,22.75,0,0,0,2.94-8.16,53.06,53.06,0,0,0,.8-8.89q0-4.22-1.31-6.05a4.69,4.69,0,0,0-4.06-1.82A6.63,6.63,0,0,0,525,279.78Z" transform="translate(-14.14 -24.08)"/><path class="cls-2" d="M588.18,297.69A19.2,19.2,0,0,1,585,306a17.63,17.63,0,0,1-6.88,5.82A22.9,22.9,0,0,1,567.9,314q-8.05,0-12.09-3.58t-4-9.85a24,24,0,0,1,.2-3l4.09-29.36H569l-4.09,29.11a18.73,18.73,0,0,0-.19,2.56,5.28,5.28,0,0,0,1,3.55,4.13,4.13,0,0,0,3.23,1.12,5.33,5.33,0,0,0,4.32-1.8,10.88,10.88,0,0,0,2-5.56l4.09-29h12.93Z" transform="translate(-14.14 -24.08)"/><path class="cls-2" d="M628.58,288.51q-2,3.42-7.52,6.24l8,18H615l-5.88-15.86h-2.62l-2.18,15.86H591.38l6.2-44.52h16.06q8.19,0,12.54,3.33a10.69,10.69,0,0,1,4.35,9A16,16,0,0,1,628.58,288.51ZM607.75,288h3.33a5.45,5.45,0,0,0,4.64-2,7.61,7.61,0,0,0,1.5-4.73q0-4.1-5.18-4.1h-2.81Z" transform="translate(-14.14 -24.08)"/><path class="cls-2" d="M668,273.06l-6.53,6.72a12.85,12.85,0,0,0-8.82-3.52,6.68,6.68,0,0,0-3.94,1,3.08,3.08,0,0,0-1.37,2.59,2.68,2.68,0,0,0,.6,1.8,5.94,5.94,0,0,0,2.05,1.34c1,.43,2.4,1,4.32,1.6q5.82,2,8.54,5.08a11.48,11.48,0,0,1,2.72,7.84,16.77,16.77,0,0,1-2,8,15.07,15.07,0,0,1-6.47,6.14q-4.47,2.4-11.51,2.4a24.71,24.71,0,0,1-10-1.88,22.78,22.78,0,0,1-7.23-4.9l7.23-7.35a14.07,14.07,0,0,0,10.3,4.28,7.52,7.52,0,0,0,4.41-1.09,3.59,3.59,0,0,0,1.54-3.13,3.86,3.86,0,0,0-1.38-3,15.15,15.15,0,0,0-4.89-2.43c-4.27-1.4-7.31-3.16-9.15-5.27a11.21,11.21,0,0,1-2.75-7.58,13.76,13.76,0,0,1,2-7.23,14.32,14.32,0,0,1,6.14-5.41,22.94,22.94,0,0,1,10.29-2.08Q661.94,266.92,668,273.06Z" transform="translate(-14.14 -24.08)"/><g class="cls-3"><path class="cls-4" d="M252.29,136.84c39-3.34,79.35-10.26,117.65-18.63l2-15.52H315.23l5.18-37.43h65.07l11.81-41.18H268ZM403.62,24.08l-6,44.34h47.79l-4.52,32.28c22.42-6.14,43-12.3,60.67-17.89l2-14.39h44.63l12.1-44.34ZM164.07,61.23l4.23,76.12Q185.42,139,204.79,139c5.72,0,11.52-.11,17.37-.31L205.53,24.08H135.85L95.76,118.36q19.09,9.86,45,15ZM423.49,224.48h58.16L496.57,118.1q-31.17,9.18-60.49,16.58ZM89.08,134.07,50.62,224.48h60.76l12.67-38.87H171l2,38.87h61.61L226,165.41C151,165.38,110.15,148.4,89.08,134.07Zm218.23,25.77q-31,3.94-58.93,5.1l-8.3,59.54H367.92L373.68,183H304Z" transform="translate(-14.14 -24.08)"/></g></svg>